<svg width="500" height="500" viewBox="0 0 500 500" fill="none" xmlns="http://www.w3.org/2000/svg">
<g id="cercado-map-min">
<g id="lagunas">
<path id="lag-cona-cona" fill-rule="evenodd" clip-rule="evenodd" d="M199.057 224.264L198.942 225.897L199.057 226.002L199.025 229.667L194.166 229.405L194.114 229.542L193.832 229.552L193.883 224.159L194.103 224.054L199.057 224.264Z" stroke="#232323" stroke-width="0.26" stroke-linecap="square" stroke-linejoin="bevel"/>
<path id="lag-albarrancho" fill-rule="evenodd" clip-rule="evenodd" d="M175.399 296.39L175.944 297.395L176.698 298.149L179.128 299.322L179.63 300.872L180.468 300.705L180.678 301.124L180.552 301.92L180.803 302.339L181.055 303.72L180.678 305.312L179.588 305.438L178.876 305.396L177.117 306.192L176.74 305.564L176.153 305.941L176.028 306.402L176.614 307.407L176.991 309.376L176.781 309.585L176.196 309.711L174.771 309.125L174.938 307.952L174.435 307.617L173.933 308.748L172.425 310.8L171.419 310.213L171.084 309.25L170.163 310.884L169.157 311.848L168.32 311.889L167.608 313.398L164.717 313.816L164.298 314.278L163.67 313.607L161.575 313.816L161.743 314.319L160.821 314.654L160.528 312.183L160.863 311.596L161.827 311.387L162.539 311.638L163.628 310.884L165.974 310.13L167.817 308.203L169.073 305.019L169.995 305.103L169.702 301.626L170.414 299.657L171.043 298.987L173.179 298.275L173.137 297.395L173.473 297.227L173.179 296.851L175.399 296.39Z" stroke="#232323" stroke-width="0.26" stroke-linecap="square" stroke-linejoin="bevel"/>
<path id="lag-alalay" fill-rule="evenodd" clip-rule="evenodd" d="M313.545 246.32L314.132 246.236L314.928 246.445L315.975 247.702L316.939 248.959L316.561 249.168L316.436 249.755L316.812 250.341L317.274 250.09L318.07 250.174L318.782 252.813L319.159 253.315L318.446 254.278L318.782 254.949L317.86 256.248L318.07 257.504L317.86 257.84L318.154 258.51L318.111 259.264L317.274 260.102L316.729 260.605L316.896 261.107L317.524 261.149L319.326 260.982L318.446 261.61L318.111 262.07L319.033 262.364L319.368 262.657L320.415 262.866L321.128 262.532L322.091 262.699L322.384 263.201L324.563 264.123L324.981 263.453L325.4 264.04L327.034 265.128L328.584 266.385L329.045 268.354L328.877 268.563L329.087 272.334L327.872 272.124L326.364 272.878L326.112 273.758L325.4 274.344L323.892 273.675L323.18 272.753L322.677 272.376L319.829 273.381L313.336 273.172L313.085 273.381L307.806 272.334L306.675 273.004L305.921 272.544L303.617 268.941L303.114 264.709L302.151 261.401L299.093 257.085L297.208 253.693L296.453 253.106L296.286 250.886L296.58 250.299L299.47 249.796L302.361 250.215L304.288 251.011L307.094 249.587L309.356 247.828L311.367 247.032L311.66 247.535L312.958 247.241L313.545 246.32Z" stroke="#232323" stroke-width="0.26" stroke-linecap="square" stroke-linejoin="bevel"/>
<path id="lag-cuellar" fill-rule="evenodd" clip-rule="evenodd" d="M270.785 215.838L266.542 219.039L264.024 217.96L262.082 216.989L263.197 215.083L262.837 213.429V211.882L264.995 211.091L267.225 210.228L267.765 211.415H270.246L269.598 212.817L270.678 214.184L270.785 215.838Z" stroke="#232323" stroke-width="0.26" stroke-linecap="square" stroke-linejoin="bevel"/>
</g>
<g id="puentes">
<path id="p-recoleta" d="M283.574 209.45L288.38 208.495L287.418 210.822L287.403 210.858L287.411 210.896L288.154 214.754L288.161 214.787L288.183 214.813L289.875 216.811L285.59 217.707L286.111 215.201L286.116 215.176L286.111 215.152L285.369 210.974L285.36 210.927L285.324 210.896L283.574 209.45Z" stroke="#232323" stroke-width="0.26"/>
<path id="p-cala-cala" d="M270.571 212.474L275.391 211.595L274.393 213.907L274.378 213.943L274.385 213.981L275.067 217.85L275.073 217.883L275.094 217.91L276.755 219.934L272.456 220.763L273.017 218.265L273.022 218.24L273.018 218.215L272.342 214.026L272.334 213.979L272.298 213.948L270.571 212.474Z" stroke="#232323" stroke-width="0.26"/>
<path id="p-quillacollo" d="M257.351 239.533L257.334 234.633L259.434 236.023L259.466 236.044L259.505 236.044L263.433 236.053L263.468 236.053L263.497 236.036L265.781 234.757L265.842 239.134L263.482 238.144L263.458 238.135L263.433 238.134L259.19 238.063L259.143 238.062L259.106 238.093L257.351 239.533Z" stroke="#232323" stroke-width="0.26"/>
<path id="p-killman" d="M244.762 261.584L247.791 257.734L248.575 260.127L248.587 260.164L248.618 260.188L251.692 262.635L251.718 262.656L251.752 262.661L254.336 263.077L251.665 266.546L250.43 264.304L250.418 264.282L250.399 264.266L247.117 261.575L247.08 261.545L247.032 261.545L244.762 261.584Z" stroke="#232323" stroke-width="0.26"/>
<path id="p-cobija" d="M260.762 227.383L262.46 222.788L263.942 224.824L263.965 224.855L264.001 224.869L267.678 226.252L267.71 226.264L267.744 226.258L270.331 225.86L268.856 229.982L266.991 228.228L266.973 228.211L266.949 228.202L263 226.651L262.955 226.633L262.91 226.649L260.762 227.383Z" stroke="#232323" stroke-width="0.26"/>
<path id="p-muyurina" fill-rule="evenodd" clip-rule="evenodd" d="M299.376 205.679L304.665 204.512L303.665 207.086L304.49 210.927L306.368 213.052L301.697 214.132L302.2 211.42L301.37 207.259L299.376 205.679Z" stroke="#232323" stroke-width="0.26" stroke-linecap="square" stroke-linejoin="bevel"/>
</g>
<g id="rios">
<path id="rocha" d="M370.35 243.471L367.501 244.728H362.222L357.531 242.214H354.012L352.504 240.79L347.142 241.376L341.361 235.428L339.434 234.255L338.512 230.066L337.339 227.553L337.758 224.955L331.223 215.907L324.353 212.472L323.599 208.785L320.164 203.591L317.483 203.088L314.216 203.842L310.11 206.607L308.811 207.612L271.026 216.996L269.518 218.337L268.429 220.431L261.454 235.952L258.437 251.87L247.797 264.438L244.781 266.365L238.917 267.202L230.873 275.581L229.847 278.618L218.704 290.849L212.085 294.284L200.083 297.301L189.695 295.877L183.411 296.379L173.44 288.588L167.241 277.863L162.13 273.256L160.182 272.585L157.25 273.675L153.228 273.925L150.715 273.507L148.201 270.993L145.939 270.742L143.426 268.815" stroke="#232323" stroke-width="0.26" stroke-linecap="square" stroke-linejoin="bevel"/>
<path id="tamborada" d="M212.099 294.327L215.465 294.465L220.513 293.969L232.512 297.61L233.346 298.803L234.229 301.34L234.394 302.361L234.974 302.748L236.629 301.616L239.304 302.113L239.773 301.423L239.166 299.961L238.642 299.327L238.835 298.748L239.497 298.168L240.518 295.493L241.235 295.189L242.035 295.299L242.366 295.851L241.815 297.617L242.104 298.444L242.848 298.858L243.621 298.555L244.283 297.81L244.421 297.369L243.98 297.038L244.008 296.376L245.221 295.548H247.179L248.007 296.541L249.165 296.072L250.352 296.21L250.821 296.596L251.29 298.141L252.393 299.437L252.117 300.485L251.952 301.589L251.483 303.161L251.814 304.816L253.924 305.623L255.193 306.175L258.64 309.181L260.158 309.485L260.71 309.015L261.289 309.236L261.868 309.319L262.033 309.595L266.895 313.078L274.26 315.008L278.404 317.139L281.853 317.966L284.059 317.773L286.514 318.684L290.162 318.573L292.093 319.429L295.879 319.264L300.485 318.215L301.926 318.766L306.974 324.09L307.864 325.531L308.995 326.801L309.215 329.448L315.642 336.372L316.284 337.069L321.442 338.558L323.18 339.124L324.118 340.944L326.987 342.433L327.759 344.034L327.263 346.957L330.793 350.102L333.386 351.867L334.434 354.956L336.199 356.336L336.751 357.495L338.131 357.66L339.841 361.963L343.04 359.591L344.806 360.197L345.303 362.956L350.102 366.376L350.544 369.963L350.213 371.948L349.108 374.1V376.362L348.226 379.065L351.812 380.499L353.688 382.872L361.26 387.574L365.066 387.685L366.06 389.119L368.045 390.278L368.873 391.602L371.3 389.45L373.231 389.34L375.162 390.389L375.272 392.485L374.555 394.856L374.955 395.864L377.658 396.801L380.637 398.125L380.858 400.057L381.465 402.539L382.513 403.918" stroke="#232323" stroke-width="0.26" stroke-linecap="square" stroke-linejoin="bevel"/>
</g>
<g id="captions">
<path id="rocha_2" d="M314.042 198.692V200.692" stroke="#232323" stroke-width="0.0846667" stroke-linecap="square" stroke-linejoin="bevel"/>
<path id="aeropuerto" d="M245.194 282.221V284.221" stroke="#232323" stroke-width="0.0846667" stroke-linecap="square" stroke-linejoin="bevel"/>
<path id="tamborada_2" d="M252.117 317.129V319.129" stroke="#232323" stroke-width="0.0846667" stroke-linecap="square" stroke-linejoin="bevel"/>
<path id="cuellar" d="M252 212V214.001" stroke="#232323" stroke-width="0.0846667" stroke-linecap="square" stroke-linejoin="bevel"/>
<path id="albarrancho" d="M172.94 314.685V316.684" stroke="#232323" stroke-width="0.0846667" stroke-linecap="square" stroke-linejoin="bevel"/>
<path id="alalay" d="M315.063 278.07V280.069" stroke="#232323" stroke-width="0.0846667" stroke-linecap="square" stroke-linejoin="bevel"/>
<path id="cona-cona" d="M196.398 217.906V219.905" stroke="#232323" stroke-width="0.0846667" stroke-linecap="square" stroke-linejoin="bevel"/>
<path id="killman" d="M247.406 268.539V270.539" stroke="#232323" stroke-width="0.0846667" stroke-linecap="square" stroke-linejoin="bevel"/>
<path id="quillacollo" d="M261.602 240.586V242.586" stroke="#232323" stroke-width="0.0846667" stroke-linecap="square" stroke-linejoin="bevel"/>
<path id="cobija" d="M264 230V232" stroke="#232323" stroke-width="0.0846667" stroke-linecap="square" stroke-linejoin="bevel"/>
<path id="cala cala" d="M272 206V208" stroke="#232323" stroke-width="0.0846667" stroke-linecap="square" stroke-linejoin="bevel"/>
<path id="recoleta" d="M285.896 203.705V205.705" stroke="#232323" stroke-width="0.0846667" stroke-linecap="square" stroke-linejoin="bevel"/>
<path id="muyurina" d="M303.581 218.455V220.455" stroke="#232323" stroke-width="0.0846667" stroke-linecap="square" stroke-linejoin="bevel"/>
</g>
<path id="cercado" fill-rule="evenodd" clip-rule="evenodd" d="M324.078 52.0605L329.942 60.8149L333.125 69.5276L333.293 78.4077L330.948 85.4447L333.125 88.6282L334.633 98.8491L339.995 105.425L342.843 112.629L343.681 121.343L346.864 124.861L342.006 138.265L336.979 138.768L335.471 142.16L327.093 150.873L326.758 153.889L324.245 157.073L325.921 160.926L326.088 165.114L323.239 168.465L321.732 196.991L318.883 200.175L318.716 207.714L320.391 212.573L315.365 219.61L320.391 220.113L326.256 229.705L329.44 229.872L339.492 247.633L341.838 255.508L344.519 260.199L343.514 265.226L346.53 267.237L351.053 268.451L361.441 276.829L365.463 283.531L366.3 288.39L371.159 291.07L370.154 292.746L371.159 296.599L373.505 299.448L375.013 302.632L377.358 303.301L380.542 302.129L385.233 302.798L385.904 304.307L386.071 306.485L388.249 311.008L387.914 312.684L394.951 317.208L395.789 324.581L398.302 329.942L404.837 338.487L406.847 338.655L409.361 340.498L410.533 345.691L417.236 347.535L423.937 362.112L399.475 377.191L388.92 393.988L384.061 395.16L372.332 393.988L369.148 397.171L364.792 403.706L345.859 410.575L338.487 420.293L325.753 421.843L326.758 434.409L322.57 434.577L318.046 438.765L308.16 436.252L301.961 437.425L292.914 446.808L269.289 456.191L207.631 423.309L187.859 418.24L166.748 421.256L139.27 421.089L118.159 409.863L113.468 397.13L84.8165 370.615L76.1039 352.351L88.6705 339.953L119.332 319.302L130.893 292.285L139.94 286.588H144.967L153.847 278.044L154.517 275.195L163.565 274.692L165.576 280.556L166.748 286.253L169.764 289.269L176.969 289.436L183.001 242.481L193.053 240.973L193.221 217.181V213.83L195.232 197.703L209.306 204.572L228.407 152.59L228.239 129.803L245.664 101.32L248.177 100.315L251.864 83.895L251.026 81.7168L253.036 77.3605L256.89 76.1876L263.759 61.4433L263.424 58.5949L269.791 48.5419L271.299 48.3744L273.813 45.0233L280.347 43.8505L311.511 53.736L322.402 51.2227L324.078 52.0605Z" stroke="#232323" stroke-width="0.26" stroke-linecap="square" stroke-linejoin="bevel"/>
</g>
</svg>
