<svg width="500" height="500" viewBox="0 0 500 500" fill="none" xmlns="http://www.w3.org/2000/svg">
<g id="cercado-map-min">
<g id="avenidas">
<g id="america">
<path id="Vector" d="M277.972 201.461L233.428 198.726" stroke="#7D8B8F" stroke-width="0.26" stroke-linecap="square" stroke-linejoin="bevel"/>
<path id="Vector_2" d="M235.034 199.558L278.33 202.294" stroke="#7D8B8F" stroke-width="0.26" stroke-linecap="square" stroke-linejoin="bevel"/>
</g>
<g id="melchor-perez">
<path id="Vector_3" d="M245.649 216.924L246.63 207.855L246.958 199.023L246.988 195.886L246.839 193.418L248.087 189.448L248.176 188.467L250.377 185.345" stroke="#7D8B8F" stroke-width="0.26" stroke-linecap="square" stroke-linejoin="bevel"/>
<path id="Vector_4" d="M250.913 185.494L248.98 188.437L248.563 190.072L247.344 193.403L247.582 196.734L247.106 208.301L246.214 216.775" stroke="#7D8B8F" stroke-width="0.26" stroke-linecap="square" stroke-linejoin="bevel"/>
</g>
<g id="heroinas">
<path id="Vector_5" d="M304.995 229.146L292.684 231.346" stroke="#7D8B8F" stroke-width="0.26" stroke-linecap="square" stroke-linejoin="bevel"/>
<path id="Vector_6" d="M305.233 229.443L292.788 231.777" stroke="#7D8B8F" stroke-width="0.26" stroke-linecap="square" stroke-linejoin="bevel"/>
</g>
<g id="belzu">
<path id="Vector_7" d="M300.208 225.845L299.97 226.856L300.683 229.948L303.701 236.564" stroke="#7D8B8F" stroke-width="0.26" stroke-linecap="square" stroke-linejoin="bevel"/>
<path id="Vector_8" d="M303.344 236.653L301.873 233.308L300.52 230.35L299.687 227.109L299.91 225.697" stroke="#7D8B8F" stroke-width="0.26" stroke-linecap="square" stroke-linejoin="bevel"/>
</g>
<g id="juan-rosa">
<path id="Vector_9" d="M271.542 211.192L270.59 210.984L269.906 211.074L269.044 211.787L265.149 212.472L264.197 212.709L258.636 209.765" stroke="#7D8B8F" stroke-width="0.26" stroke-linecap="square" stroke-linejoin="bevel"/>
<path id="Vector_10" d="M259.142 209.23L264.019 211.965L265.298 211.906L269.044 211.133L270.174 210.479L271.393 210.568" stroke="#7D8B8F" stroke-width="0.26" stroke-linecap="square" stroke-linejoin="bevel"/>
</g>
<g id="libertadores">
<path id="Vector_11" d="M272.642 214.642L267.914 198.421" stroke="#7D8B8F" stroke-width="0.26" stroke-linecap="square" stroke-linejoin="bevel"/>
<path id="Vector_12" d="M273.288 214.464L268.472 198.347" stroke="#7D8B8F" stroke-width="0.26" stroke-linecap="square" stroke-linejoin="bevel"/>
</g>
</g>
<g id="lagunas">
<path id="lag-sarco" fill-rule="evenodd" clip-rule="evenodd" d="M246.277 195.789H246.288L246.3 195.79H246.311L246.322 195.791L246.333 195.792L246.344 195.792L246.355 195.794L246.367 195.796L246.378 195.798L246.389 195.799L246.4 195.801L246.411 195.803L246.421 195.806L246.432 195.809L246.443 195.811L246.454 195.814L246.465 195.817L246.476 195.82L246.487 195.825L246.497 195.828L246.508 195.832L246.518 195.836L246.528 195.841L246.538 195.845L246.548 195.849L246.558 195.854L246.569 195.859L246.579 195.864L246.588 195.869L246.598 195.875L246.608 195.881L246.617 195.886L246.627 195.893L246.636 195.899L246.646 195.905L246.654 195.912L246.663 195.919L246.672 195.925L246.681 195.932L246.69 195.94L246.698 195.947L246.707 195.954L246.715 195.962L246.723 195.969L246.731 195.977L246.739 195.985L246.746 195.993L246.754 196.002L246.762 196.01L246.768 196.018L246.776 196.027L246.783 196.035L246.79 196.045L246.796 196.054L246.803 196.062L246.809 196.072L246.815 196.081L246.821 196.09L246.827 196.101L246.833 196.11L246.839 196.12L246.844 196.129L246.849 196.14L246.854 196.15L246.859 196.16L246.863 196.17L246.867 196.18L246.872 196.19L246.876 196.201L246.88 196.211L246.884 196.222L246.887 196.233L246.89 196.243L246.894 196.254L246.897 196.265L246.9 196.276L246.902 196.286L246.905 196.297L246.907 196.308L246.909 196.319L246.911 196.33L246.912 196.341L246.914 196.352L246.915 196.364L246.917 196.375L246.917 196.386V196.397L246.918 196.408V196.42L246.919 196.431L246.918 196.442V196.453L246.917 196.464V196.476L246.917 196.487L246.915 196.498L246.914 196.509L246.912 196.52L246.911 196.531L246.909 196.542L246.907 196.553L246.905 196.564L246.902 196.575L246.9 196.586L246.897 196.597L246.894 196.608L246.89 196.618L246.887 196.629L246.884 196.639L246.88 196.65L246.876 196.66L246.872 196.67L246.867 196.681L246.863 196.692L246.859 196.702L246.854 196.712L246.849 196.722L246.844 196.731L246.839 196.741L246.833 196.751L246.827 196.761L246.821 196.77L246.815 196.78L246.809 196.789L246.803 196.798L246.796 196.808L246.79 196.817L246.783 196.825L246.776 196.834L246.768 196.843L246.762 196.852L246.754 196.86L246.746 196.868L246.739 196.876L246.731 196.884L246.723 196.892L246.715 196.9L246.707 196.907L246.698 196.914L246.69 196.922L246.681 196.929L246.672 196.936L246.663 196.943L246.654 196.95L246.646 196.956L246.636 196.962L246.627 196.968L246.617 196.974L246.608 196.98L246.598 196.986L246.588 196.991L246.579 196.997L246.569 197.002L246.558 197.007L246.548 197.012L246.538 197.017L246.528 197.021L246.518 197.025L246.508 197.029L246.497 197.033L246.487 197.037L246.476 197.04L246.465 197.044L246.454 197.047L246.443 197.05L246.432 197.053L246.421 197.056L246.411 197.058L246.4 197.06L246.389 197.062L246.378 197.064L246.367 197.066L246.355 197.067L246.344 197.068L246.333 197.069L246.322 197.07L246.311 197.071L246.3 197.072H246.288H246.277H246.266H246.255L246.244 197.071L246.233 197.07L246.222 197.069L246.211 197.068L246.2 197.067L246.189 197.066L246.178 197.064L246.167 197.062L246.156 197.06L246.144 197.058L246.133 197.056L246.122 197.053L246.111 197.05L246.1 197.047L246.09 197.044L246.079 197.04L246.069 197.037L246.058 197.033L246.048 197.029L246.037 197.025L246.027 197.021L246.017 197.017L246.007 197.012L245.996 197.007L245.986 197.002L245.977 196.997L245.967 196.991L245.957 196.986L245.947 196.98L245.938 196.974L245.929 196.968L245.919 196.962L245.91 196.956L245.901 196.95L245.891 196.943L245.883 196.936L245.874 196.929L245.865 196.922L245.857 196.914L245.848 196.907L245.841 196.9L245.832 196.892L245.824 196.884L245.816 196.876L245.808 196.868L245.801 196.86L245.793 196.852L245.786 196.843L245.779 196.834L245.772 196.825L245.765 196.817L245.758 196.808L245.753 196.798L245.746 196.789L245.74 196.78L245.734 196.77L245.728 196.761L245.722 196.751L245.717 196.741L245.711 196.731L245.706 196.722L245.701 196.712L245.697 196.702L245.692 196.692L245.687 196.681L245.683 196.67L245.679 196.66L245.675 196.65L245.671 196.639L245.668 196.629L245.664 196.618L245.661 196.608L245.658 196.597L245.655 196.586L245.653 196.575L245.65 196.564L245.648 196.553L245.646 196.542L245.644 196.531L245.642 196.52L245.641 196.509L245.64 196.498L245.639 196.487L245.638 196.476L245.637 196.464L245.637 196.453V196.442V196.431V196.42V196.408L245.637 196.397L245.638 196.386L245.639 196.375L245.64 196.364L245.641 196.352L245.642 196.341L245.644 196.33L245.646 196.319L245.648 196.308L245.65 196.297L245.653 196.286L245.655 196.276L245.658 196.265L245.661 196.254L245.664 196.243L245.668 196.233L245.671 196.222L245.675 196.211L245.679 196.201L245.683 196.19L245.687 196.18L245.692 196.17L245.697 196.16L245.701 196.15L245.706 196.14L245.711 196.129L245.717 196.12L245.722 196.11L245.728 196.101L245.734 196.09L245.74 196.081L245.746 196.072L245.753 196.062L245.758 196.054L245.765 196.045L245.772 196.035L245.779 196.027L245.786 196.018L245.793 196.01L245.801 196.002L245.808 195.993L245.816 195.985L245.824 195.977L245.832 195.969L245.841 195.962L245.848 195.954L245.857 195.947L245.865 195.94L245.874 195.932L245.883 195.925L245.891 195.919L245.901 195.912L245.91 195.905L245.919 195.899L245.929 195.893L245.938 195.886L245.947 195.881L245.957 195.875L245.967 195.869L245.977 195.864L245.986 195.859L245.996 195.854L246.007 195.849L246.017 195.845L246.027 195.841L246.037 195.836L246.048 195.832L246.058 195.828L246.069 195.825L246.079 195.82L246.09 195.817L246.1 195.814L246.111 195.811L246.122 195.809L246.133 195.806L246.144 195.803L246.156 195.801L246.167 195.799L246.178 195.798L246.189 195.796L246.2 195.794L246.211 195.792L246.222 195.792L246.233 195.791L246.244 195.79H246.255L246.266 195.789H246.277Z" stroke="#232323" stroke-width="0.26" stroke-linecap="square" stroke-linejoin="bevel"/>
<path id="lag-cuadras" fill-rule="evenodd" clip-rule="evenodd" d="M303.509 227.38H303.525L303.541 227.381L303.558 227.382L303.574 227.382L303.591 227.383L303.607 227.385L303.623 227.387L303.64 227.389L303.656 227.392L303.672 227.394L303.688 227.398L303.704 227.4L303.72 227.404L303.736 227.408L303.752 227.412L303.769 227.416L303.785 227.421L303.8 227.426L303.816 227.431L303.831 227.437L303.846 227.443L303.862 227.448L303.877 227.455L303.892 227.462L303.907 227.469L303.923 227.476L303.937 227.483L303.951 227.491L303.966 227.498L303.98 227.507L303.995 227.514L304.009 227.524L304.023 227.532L304.036 227.542L304.05 227.551L304.063 227.56L304.077 227.57L304.089 227.58L304.103 227.591L304.116 227.601L304.127 227.612L304.14 227.623L304.152 227.634L304.164 227.645L304.176 227.657L304.188 227.669L304.199 227.68L304.21 227.692L304.221 227.705L304.232 227.718L304.242 227.73L304.253 227.743L304.262 227.756L304.272 227.769L304.282 227.783L304.291 227.796L304.3 227.81L304.31 227.823L304.318 227.838L304.326 227.852L304.334 227.867L304.342 227.881L304.349 227.895L304.357 227.911L304.365 227.925L304.371 227.94L304.377 227.956L304.384 227.971L304.39 227.986L304.396 228.001L304.401 228.017L304.406 228.033L304.411 228.048L304.416 228.064L304.42 228.08L304.425 228.096L304.428 228.112L304.432 228.128L304.436 228.144L304.438 228.16L304.441 228.177L304.443 228.193L304.446 228.21L304.448 228.226L304.449 228.242L304.45 228.259L304.452 228.275V228.292L304.453 228.308V228.325V228.341L304.452 228.358V228.374L304.45 228.39L304.449 228.407L304.448 228.423L304.446 228.44L304.443 228.456L304.441 228.472L304.438 228.488L304.436 228.504L304.432 228.521L304.428 228.537L304.425 228.552L304.42 228.568L304.416 228.585L304.411 228.601L304.406 228.616L304.401 228.632L304.396 228.647L304.39 228.662L304.384 228.678L304.377 228.693L304.371 228.708L304.365 228.723L304.357 228.739L304.349 228.753L304.342 228.767L304.334 228.782L304.326 228.796L304.318 228.811L304.31 228.825L304.3 228.839L304.291 228.852L304.282 228.866L304.272 228.879L304.262 228.893L304.253 228.905L304.242 228.919L304.232 228.932L304.221 228.944L304.21 228.956L304.199 228.968L304.188 228.98L304.176 228.992L304.164 229.004L304.152 229.015L304.14 229.026L304.127 229.037L304.116 229.048L304.103 229.059L304.089 229.069L304.077 229.078L304.063 229.088L304.05 229.098L304.036 229.107L304.023 229.116L304.009 229.126L303.995 229.134L303.98 229.142L303.966 229.15L303.951 229.159L303.937 229.166L303.923 229.173L303.907 229.181L303.892 229.187L303.877 229.193L303.862 229.2L303.846 229.206L303.831 229.212L303.816 229.217L303.8 229.223L303.785 229.227L303.769 229.232L303.752 229.236L303.736 229.241L303.72 229.245L303.704 229.248L303.688 229.252L303.672 229.254L303.656 229.257L303.64 229.259L303.623 229.262L303.607 229.264L303.591 229.265L303.574 229.266L303.558 229.268H303.541L303.525 229.269H303.509H303.492L303.476 229.268H303.459L303.443 229.266L303.426 229.265L303.41 229.264L303.393 229.262L303.377 229.259L303.36 229.257L303.344 229.254L303.328 229.252L303.312 229.248L303.296 229.245L303.28 229.241L303.264 229.236L303.248 229.232L303.232 229.227L303.217 229.223L303.2 229.217L303.185 229.212L303.17 229.206L303.155 229.2L303.14 229.193L303.124 229.187L303.109 229.181L303.095 229.173L303.079 229.166L303.065 229.159L303.051 229.15L303.036 229.142L303.022 229.134L303.007 229.126L302.994 229.116L302.98 229.107L302.967 229.098L302.953 229.088L302.94 229.078L302.927 229.069L302.913 229.059L302.901 229.048L302.889 229.037L302.876 229.026L302.864 229.015L302.853 229.004L302.841 228.992L302.829 228.98L302.818 228.968L302.807 228.956L302.796 228.944L302.785 228.932L302.775 228.919L302.764 228.905L302.754 228.893L302.744 228.879L302.735 228.866L302.726 228.852L302.716 228.839L302.708 228.825L302.698 228.811L302.69 228.796L302.682 228.782L302.675 228.767L302.667 228.753L302.659 228.739L302.653 228.723L302.645 228.708L302.639 228.693L302.632 228.678L302.626 228.662L302.621 228.647L302.615 228.632L302.61 228.616L302.605 228.601L302.6 228.585L302.596 228.568L302.592 228.552L302.588 228.537L302.584 228.521L302.581 228.504L302.578 228.488L302.576 228.472L302.573 228.456L302.571 228.44L302.569 228.423L302.567 228.407L302.566 228.39L302.566 228.374L302.565 228.358L302.564 228.341V228.325V228.308L302.565 228.292L302.566 228.275L302.566 228.259L302.567 228.242L302.569 228.226L302.571 228.21L302.573 228.193L302.576 228.177L302.578 228.16L302.581 228.144L302.584 228.128L302.588 228.112L302.592 228.096L302.596 228.08L302.6 228.064L302.605 228.048L302.61 228.033L302.615 228.017L302.621 228.001L302.626 227.986L302.632 227.971L302.639 227.956L302.645 227.94L302.653 227.925L302.659 227.911L302.667 227.895L302.675 227.881L302.682 227.867L302.69 227.852L302.698 227.838L302.708 227.823L302.716 227.81L302.726 227.796L302.735 227.783L302.744 227.769L302.754 227.756L302.764 227.743L302.775 227.73L302.785 227.718L302.796 227.705L302.807 227.692L302.818 227.68L302.829 227.669L302.841 227.657L302.853 227.645L302.864 227.634L302.876 227.623L302.889 227.612L302.901 227.601L302.913 227.591L302.927 227.58L302.94 227.57L302.953 227.56L302.967 227.551L302.98 227.542L302.994 227.532L303.007 227.524L303.022 227.514L303.036 227.507L303.051 227.498L303.065 227.491L303.079 227.483L303.095 227.476L303.109 227.469L303.124 227.462L303.14 227.455L303.155 227.448L303.17 227.443L303.185 227.437L303.2 227.431L303.217 227.426L303.232 227.421L303.248 227.416L303.264 227.412L303.28 227.408L303.296 227.404L303.312 227.4L303.328 227.398L303.344 227.394L303.36 227.392L303.377 227.389L303.393 227.387L303.41 227.385L303.426 227.383L303.443 227.382L303.459 227.382L303.476 227.381L303.492 227.38H303.509Z" stroke="#232323" stroke-width="0.26" stroke-linecap="square" stroke-linejoin="bevel"/>
<path id="lag-cona-cona" fill-rule="evenodd" clip-rule="evenodd" d="M199.057 224.264L198.942 225.897L199.057 226.002L199.025 229.667L194.166 229.405L194.114 229.542L193.832 229.552L193.883 224.159L194.103 224.054L199.057 224.264Z" stroke="#232323" stroke-width="0.26" stroke-linecap="square" stroke-linejoin="bevel"/>
<path id="lag-albarrancho" fill-rule="evenodd" clip-rule="evenodd" d="M175.399 296.39L175.944 297.395L176.698 298.149L179.128 299.322L179.63 300.872L180.468 300.705L180.678 301.124L180.552 301.92L180.803 302.339L181.055 303.72L180.678 305.312L179.588 305.438L178.876 305.396L177.117 306.192L176.74 305.564L176.153 305.941L176.028 306.402L176.614 307.407L176.991 309.376L176.781 309.585L176.196 309.711L174.771 309.125L174.938 307.952L174.435 307.617L173.933 308.748L172.425 310.8L171.419 310.213L171.084 309.25L170.163 310.884L169.157 311.848L168.32 311.889L167.608 313.398L164.717 313.816L164.298 314.278L163.67 313.607L161.575 313.816L161.743 314.319L160.821 314.654L160.528 312.183L160.863 311.596L161.827 311.387L162.539 311.638L163.628 310.884L165.974 310.13L167.817 308.203L169.073 305.019L169.995 305.103L169.702 301.626L170.414 299.657L171.043 298.987L173.179 298.275L173.137 297.395L173.473 297.227L173.179 296.851L175.399 296.39Z" stroke="#232323" stroke-width="0.26" stroke-linecap="square" stroke-linejoin="bevel"/>
<path id="lag-alalay" fill-rule="evenodd" clip-rule="evenodd" d="M313.545 246.32L314.132 246.236L314.928 246.445L315.975 247.702L316.939 248.959L316.561 249.168L316.436 249.755L316.812 250.341L317.274 250.09L318.07 250.174L318.782 252.813L319.159 253.315L318.446 254.278L318.782 254.949L317.86 256.248L318.07 257.504L317.86 257.84L318.154 258.51L318.111 259.264L317.274 260.102L316.729 260.605L316.896 261.107L317.524 261.149L319.326 260.982L318.446 261.61L318.111 262.07L319.033 262.364L319.368 262.657L320.415 262.866L321.128 262.532L322.091 262.699L322.384 263.201L324.563 264.123L324.981 263.453L325.4 264.04L327.034 265.128L328.584 266.385L329.045 268.354L328.877 268.563L329.087 272.334L327.872 272.124L326.364 272.878L326.112 273.758L325.4 274.344L323.892 273.675L323.18 272.753L322.677 272.376L319.829 273.381L313.336 273.172L313.085 273.381L307.806 272.334L306.675 273.004L305.921 272.544L303.617 268.941L303.114 264.709L302.151 261.401L299.093 257.085L297.208 253.693L296.453 253.106L296.286 250.886L296.58 250.299L299.47 249.796L302.361 250.215L304.288 251.011L307.094 249.587L309.356 247.828L311.367 247.032L311.66 247.535L312.958 247.241L313.545 246.32Z" stroke="#232323" stroke-width="0.26" stroke-linecap="square" stroke-linejoin="bevel"/>
<path id="lag-cuellar" fill-rule="evenodd" clip-rule="evenodd" d="M269.401 212.137H269.444L269.487 212.138L269.529 212.141L269.572 212.143L269.616 212.147L269.658 212.151L269.7 212.155L269.743 212.161L269.786 212.167L269.828 212.175L269.87 212.182L269.913 212.191L269.954 212.2L269.996 212.21L270.037 212.221L270.079 212.232L270.12 212.245L270.161 212.258L270.201 212.271L270.242 212.285L270.283 212.301L270.323 212.316L270.362 212.333L270.401 212.35L270.44 212.368L270.479 212.386L270.518 212.405L270.556 212.425L270.593 212.445L270.631 212.467L270.668 212.489L270.704 212.511L270.741 212.534L270.776 212.558L270.812 212.582L270.847 212.607L270.881 212.633L270.915 212.659L270.949 212.685L270.982 212.713L271.015 212.74L271.047 212.769L271.079 212.798L271.11 212.827L271.14 212.858L271.171 212.888L271.2 212.92L271.229 212.951L271.258 212.983L271.285 213.016L271.313 213.049L271.339 213.083L271.366 213.117L271.391 213.152L271.416 213.186L271.441 213.222L271.465 213.257L271.487 213.294L271.509 213.33L271.531 213.367L271.553 213.405L271.573 213.442L271.593 213.48L271.612 213.519L271.631 213.558L271.648 213.597L271.665 213.636L271.682 213.676L271.697 213.715L271.713 213.756L271.727 213.797L271.741 213.837L271.753 213.878L271.766 213.919L271.777 213.961L271.788 214.002L271.798 214.044L271.807 214.086L271.816 214.128L271.824 214.17L271.831 214.212L271.837 214.255L271.843 214.298L271.847 214.34L271.851 214.383L271.855 214.426L271.857 214.469L271.86 214.511L271.861 214.554V214.598V214.64L271.86 214.683L271.857 214.726L271.855 214.769L271.851 214.812L271.847 214.854L271.843 214.897L271.837 214.94L271.831 214.982L271.824 215.024L271.816 215.067L271.807 215.109L271.798 215.15L271.788 215.193L271.777 215.234L271.766 215.276L271.753 215.316L271.741 215.358L271.727 215.398L271.713 215.439L271.697 215.479L271.682 215.519L271.665 215.558L271.648 215.598L271.631 215.637L271.612 215.676L271.593 215.714L271.573 215.752L271.553 215.79L271.531 215.828L271.509 215.864L271.487 215.901L271.465 215.937L271.441 215.973L271.416 216.009L271.391 216.044L271.366 216.078L271.339 216.112L271.313 216.146L271.285 216.179L271.258 216.211L271.229 216.243L271.2 216.275L271.171 216.306L271.14 216.337L271.11 216.367L271.079 216.397L271.047 216.425L271.015 216.454L270.982 216.482L270.949 216.509L270.915 216.536L270.881 216.562L270.847 216.588L270.812 216.612L270.776 216.637L270.741 216.661L270.704 216.684L270.668 216.706L270.631 216.728L270.593 216.749L270.556 216.77L270.518 216.789L270.479 216.809L270.44 216.827L270.401 216.844L270.362 216.862L270.323 216.878L270.283 216.894L270.242 216.909L270.201 216.923L270.161 216.937L270.12 216.95L270.079 216.962L270.037 216.974L269.996 216.984L269.954 216.994L269.913 217.004L269.87 217.012L269.828 217.02L269.786 217.027L269.743 217.033L269.7 217.039L269.658 217.044L269.616 217.048L269.572 217.052L269.529 217.054L269.487 217.056L269.444 217.057L269.401 217.058L269.358 217.057L269.315 217.056L269.272 217.054L269.23 217.052L269.186 217.048L269.144 217.044L269.101 217.039L269.059 217.033L269.016 217.027L268.974 217.02L268.932 217.012L268.889 217.004L268.848 216.994L268.805 216.984L268.764 216.974L268.722 216.962L268.682 216.95L268.64 216.937L268.6 216.923L268.559 216.909L268.519 216.894L268.48 216.878L268.44 216.862L268.4 216.844L268.361 216.827L268.322 216.809L268.284 216.789L268.246 216.77L268.208 216.749L268.171 216.728L268.134 216.706L268.097 216.684L268.061 216.661L268.025 216.637L267.99 216.612L267.955 216.588L267.92 216.562L267.886 216.536L267.853 216.509L267.819 216.482L267.787 216.454L267.755 216.425L267.723 216.397L267.692 216.367L267.661 216.337L267.631 216.306L267.602 216.275L267.573 216.243L267.544 216.211L267.516 216.179L267.489 216.146L267.462 216.112L267.436 216.078L267.41 216.044L267.386 216.009L267.361 215.973L267.337 215.937L267.315 215.901L267.292 215.864L267.271 215.828L267.249 215.79L267.228 215.752L267.209 215.714L267.189 215.676L267.172 215.637L267.154 215.598L267.136 215.558L267.12 215.519L267.104 215.479L267.089 215.439L267.075 215.398L267.061 215.358L267.048 215.316L267.036 215.276L267.024 215.234L267.014 215.193L267.004 215.15L266.995 215.109L266.986 215.067L266.978 215.024L266.971 214.982L266.965 214.94L266.959 214.897L266.954 214.854L266.95 214.812L266.946 214.769L266.944 214.726L266.942 214.683L266.941 214.64L266.94 214.598L266.941 214.554L266.942 214.511L266.944 214.469L266.946 214.426L266.95 214.383L266.954 214.34L266.959 214.298L266.965 214.255L266.971 214.212L266.978 214.17L266.986 214.128L266.995 214.086L267.004 214.044L267.014 214.002L267.024 213.961L267.036 213.919L267.048 213.878L267.061 213.837L267.075 213.797L267.089 213.756L267.104 213.715L267.12 213.676L267.136 213.636L267.154 213.597L267.172 213.558L267.189 213.519L267.209 213.48L267.228 213.442L267.249 213.405L267.271 213.367L267.292 213.33L267.315 213.294L267.337 213.257L267.361 213.222L267.386 213.186L267.41 213.152L267.436 213.117L267.462 213.083L267.489 213.049L267.516 213.016L267.544 212.983L267.573 212.951L267.602 212.92L267.631 212.888L267.661 212.858L267.692 212.827L267.723 212.798L267.755 212.769L267.787 212.74L267.819 212.713L267.853 212.685L267.886 212.659L267.92 212.633L267.955 212.607L267.99 212.582L268.025 212.558L268.061 212.534L268.097 212.511L268.134 212.489L268.171 212.467L268.208 212.445L268.246 212.425L268.284 212.405L268.322 212.386L268.361 212.368L268.4 212.35L268.44 212.333L268.48 212.316L268.519 212.301L268.559 212.285L268.6 212.271L268.64 212.258L268.682 212.245L268.722 212.232L268.764 212.221L268.805 212.21L268.848 212.2L268.889 212.191L268.932 212.182L268.974 212.175L269.016 212.167L269.059 212.161L269.101 212.155L269.144 212.151L269.186 212.147L269.23 212.143L269.272 212.141L269.315 212.138L269.358 212.137H269.401Z" stroke="#232323" stroke-width="0.26" stroke-linecap="square" stroke-linejoin="bevel"/>
</g>
<g id="puentes">
<path id="p-recoleta" d="M283.574 209.45L288.38 208.495L287.418 210.822L287.403 210.858L287.411 210.896L288.154 214.754L288.161 214.787L288.183 214.813L289.875 216.811L285.59 217.707L286.111 215.201L286.116 215.176L286.111 215.152L285.369 210.974L285.36 210.927L285.324 210.896L283.574 209.45Z" stroke="#232323" stroke-width="0.26"/>
<path id="p-cala-cala" d="M270.571 212.474L275.391 211.595L274.393 213.907L274.378 213.943L274.385 213.981L275.067 217.85L275.073 217.883L275.094 217.91L276.755 219.934L272.456 220.763L273.017 218.265L273.022 218.24L273.018 218.215L272.342 214.026L272.334 213.979L272.298 213.948L270.571 212.474Z" stroke="#232323" stroke-width="0.26"/>
<path id="p-quillacollo" d="M257.351 239.533L257.334 234.633L259.434 236.023L259.466 236.044L259.505 236.044L263.433 236.053L263.468 236.053L263.497 236.036L265.781 234.757L265.842 239.134L263.482 238.144L263.458 238.135L263.433 238.134L259.19 238.063L259.143 238.062L259.106 238.093L257.351 239.533Z" stroke="#232323" stroke-width="0.26"/>
<path id="p-killman" d="M244.762 261.584L247.791 257.734L248.575 260.127L248.587 260.164L248.618 260.188L251.692 262.635L251.718 262.656L251.752 262.661L254.336 263.077L251.665 266.546L250.43 264.304L250.418 264.282L250.399 264.266L247.117 261.575L247.08 261.545L247.032 261.545L244.762 261.584Z" stroke="#232323" stroke-width="0.26"/>
<path id="p-cobija" d="M260.762 227.383L262.46 222.788L263.942 224.824L263.965 224.855L264.001 224.869L267.678 226.252L267.71 226.264L267.744 226.258L270.331 225.86L268.856 229.982L266.991 228.228L266.973 228.211L266.949 228.202L263 226.651L262.955 226.633L262.91 226.649L260.762 227.383Z" stroke="#232323" stroke-width="0.26"/>
<path id="p-muyurina" fill-rule="evenodd" clip-rule="evenodd" d="M299.376 205.679L304.665 204.512L303.665 207.086L304.49 210.927L306.368 213.052L301.697 214.132L302.2 211.42L301.37 207.259L299.376 205.679Z" stroke="#232323" stroke-width="0.26" stroke-linecap="square" stroke-linejoin="bevel"/>
<path id="p-cala-cala-small" fill-rule="evenodd" clip-rule="evenodd" d="M271.971 214.985L274.991 214.434L274.371 215.871L274.758 218.064L275.778 219.306L273.109 219.821L273.451 218.296L273.068 215.921L271.971 214.985Z" stroke="#232323" stroke-width="0.26" stroke-linecap="square" stroke-linejoin="bevel"/>
</g>
<g id="rios">
<path id="rocha" d="M370.35 243.471L367.501 244.728H362.222L357.531 242.214H354.012L352.504 240.79L347.142 241.376L341.361 235.428L339.434 234.255L338.512 230.066L337.339 227.553L337.758 224.955L331.223 215.907L324.353 212.472L323.599 208.785L320.164 203.591L317.483 203.088L314.216 203.842L310.11 206.607L308.811 207.612L271.026 216.996L269.518 218.337L268.429 220.431L261.454 235.952L258.437 251.87L247.797 264.438L244.781 266.365L238.917 267.202L230.873 275.581L229.847 278.618L218.704 290.849L212.085 294.284L200.083 297.301L189.695 295.877L183.411 296.379L173.44 288.588L167.241 277.863L162.13 273.256L160.182 272.585L157.25 273.675L153.228 273.925L150.715 273.507L148.201 270.993L145.939 270.742L143.426 268.815" stroke="#232323" stroke-width="0.26" stroke-linecap="square" stroke-linejoin="bevel"/>
<path id="tamborada" d="M212.099 294.327L215.465 294.465L220.513 293.969L232.512 297.61L233.346 298.803L234.229 301.34L234.394 302.361L234.974 302.748L236.629 301.616L239.304 302.113L239.773 301.423L239.166 299.961L238.642 299.327L238.835 298.748L239.497 298.168L240.518 295.493L241.235 295.189L242.035 295.299L242.366 295.851L241.815 297.617L242.104 298.444L242.848 298.858L243.621 298.555L244.283 297.81L244.421 297.369L243.98 297.038L244.008 296.376L245.221 295.548H247.179L248.007 296.541L249.165 296.072L250.352 296.21L250.821 296.596L251.29 298.141L252.393 299.437L252.117 300.485L251.952 301.589L251.483 303.161L251.814 304.816L253.924 305.623L255.193 306.175L258.64 309.181L260.158 309.485L260.71 309.015L261.289 309.236L261.868 309.319L262.033 309.595L266.895 313.078L274.26 315.008L278.404 317.139L281.853 317.966L284.059 317.773L286.514 318.684L290.162 318.573L292.093 319.429L295.879 319.264L300.485 318.215L301.926 318.766L306.974 324.09L307.864 325.531L308.995 326.801L309.215 329.448L315.642 336.372L316.284 337.069L321.442 338.558L323.18 339.124L324.118 340.944L326.987 342.433L327.759 344.034L327.263 346.957L330.793 350.102L333.386 351.867L334.434 354.956L336.199 356.336L336.751 357.495L338.131 357.66L339.841 361.963L343.04 359.591L344.806 360.197L345.303 362.956L350.102 366.376L350.544 369.963L350.213 371.948L349.108 374.1V376.362L348.226 379.065L351.812 380.499L353.688 382.872L361.26 387.574L365.066 387.685L366.06 389.119L368.045 390.278L368.873 391.602L371.3 389.45L373.231 389.34L375.162 390.389L375.272 392.485L374.555 394.856L374.955 395.864L377.658 396.801L380.637 398.125L380.858 400.057L381.465 402.539L382.513 403.918" stroke="#232323" stroke-width="0.26" stroke-linecap="square" stroke-linejoin="bevel"/>
</g>
<g id="captions">
<path id="rocha_2" d="M314.042 198.692V200.692" stroke="#232323" stroke-width="0.0846667" stroke-linecap="square" stroke-linejoin="bevel"/>
<path id="aeropuerto" d="M245.194 282.221V284.221" stroke="#232323" stroke-width="0.0846667" stroke-linecap="square" stroke-linejoin="bevel"/>
<path id="tamborada_2" d="M252.117 317.129V319.129" stroke="#232323" stroke-width="0.0846667" stroke-linecap="square" stroke-linejoin="bevel"/>
<path id="cuellar" d="M252 212V214.001" stroke="#232323" stroke-width="0.0846667" stroke-linecap="square" stroke-linejoin="bevel"/>
<path id="albarrancho" d="M172.94 314.685V316.684" stroke="#232323" stroke-width="0.0846667" stroke-linecap="square" stroke-linejoin="bevel"/>
<path id="alalay" d="M315.063 278.07V280.069" stroke="#232323" stroke-width="0.0846667" stroke-linecap="square" stroke-linejoin="bevel"/>
<path id="cona-cona" d="M196.398 217.906V219.905" stroke="#232323" stroke-width="0.0846667" stroke-linecap="square" stroke-linejoin="bevel"/>
<path id="killman" d="M247.406 268.539V270.539" stroke="#232323" stroke-width="0.0846667" stroke-linecap="square" stroke-linejoin="bevel"/>
<path id="quillacollo" d="M261.602 240.586V242.586" stroke="#232323" stroke-width="0.0846667" stroke-linecap="square" stroke-linejoin="bevel"/>
<path id="cobija" d="M264 230V232" stroke="#232323" stroke-width="0.0846667" stroke-linecap="square" stroke-linejoin="bevel"/>
<path id="cala cala" d="M272 206V208" stroke="#232323" stroke-width="0.0846667" stroke-linecap="square" stroke-linejoin="bevel"/>
<path id="recoleta" d="M285.896 203.705V205.705" stroke="#232323" stroke-width="0.0846667" stroke-linecap="square" stroke-linejoin="bevel"/>
<path id="muyurina" d="M303.581 218.455V220.455" stroke="#232323" stroke-width="0.0846667" stroke-linecap="square" stroke-linejoin="bevel"/>
<path id="cuadras" d="M307.922 223.153V225.154" stroke="#232323" stroke-width="0.0846667" stroke-linecap="square" stroke-linejoin="bevel"/>
<path id="sarco" d="M240.347 191.604V193.604" stroke="#232323" stroke-width="0.0846667" stroke-linecap="square" stroke-linejoin="bevel"/>
</g>
<path id="campus-umss" fill-rule="evenodd" clip-rule="evenodd" d="M302.156 233.599L303.493 236.81L301.234 239.367L301.025 238.445L293.146 239.605L293.026 238.892L291.451 238.98L290.886 235.62L302.156 233.599Z" stroke="#232323" stroke-width="0.26" stroke-linecap="square" stroke-linejoin="bevel"/>
<path id="cercado" fill-rule="evenodd" clip-rule="evenodd" d="M324.078 52.0605L329.942 60.8149L333.125 69.5276L333.293 78.4077L330.948 85.4447L333.125 88.6282L334.633 98.8491L339.995 105.425L342.843 112.629L343.681 121.343L346.864 124.861L342.006 138.265L336.979 138.768L335.471 142.16L327.093 150.873L326.758 153.889L324.245 157.073L325.921 160.926L326.088 165.114L323.239 168.465L321.732 196.991L318.883 200.175L318.716 207.714L320.391 212.573L315.365 219.61L320.391 220.113L326.256 229.705L329.44 229.872L339.492 247.633L341.838 255.508L344.519 260.199L343.514 265.226L346.53 267.237L351.053 268.451L361.441 276.829L365.463 283.531L366.3 288.39L371.159 291.07L370.154 292.746L371.159 296.599L373.505 299.448L375.013 302.632L377.358 303.301L380.542 302.129L385.233 302.798L385.904 304.307L386.071 306.485L388.249 311.008L387.914 312.684L394.951 317.208L395.789 324.581L398.302 329.942L404.837 338.487L406.847 338.655L409.361 340.498L410.533 345.691L417.236 347.535L423.937 362.112L399.475 377.191L388.92 393.988L384.061 395.16L372.332 393.988L369.148 397.171L364.792 403.706L345.859 410.575L338.487 420.293L325.753 421.843L326.758 434.409L322.57 434.577L318.046 438.765L308.16 436.252L301.961 437.425L292.914 446.808L269.289 456.191L207.631 423.309L187.859 418.24L166.748 421.256L139.27 421.089L118.159 409.863L113.468 397.13L84.8165 370.615L76.1039 352.351L88.6705 339.953L119.332 319.302L130.893 292.285L139.94 286.588H144.967L153.847 278.044L154.517 275.195L163.565 274.692L165.576 280.556L166.748 286.253L169.764 289.269L176.969 289.436L183.001 242.481L193.053 240.973L193.221 217.181V213.83L195.232 197.703L209.306 204.572L228.407 152.59L228.239 129.803L245.664 101.32L248.177 100.315L251.864 83.895L251.026 81.7168L253.036 77.3605L256.89 76.1876L263.759 61.4433L263.424 58.5949L269.791 48.5419L271.299 48.3744L273.813 45.0233L280.347 43.8505L311.511 53.736L322.402 51.2227L324.078 52.0605Z" stroke="#232323" stroke-width="0.26" stroke-linecap="square" stroke-linejoin="bevel"/>
</g>
</svg>
