<svg width="300" height="300" viewBox="0 0 300 300" fill="none" xmlns="http://www.w3.org/2000/svg">
<g id="Frame 1">
<rect width="300" height="300" fill="white"/>
<g id="cercado-map 1">
<g id="lagunas">
<g id="lag-cuellar">
<path id="Vector" fill-rule="evenodd" clip-rule="evenodd" d="M163.384 128.701L163.035 129.797L161.317 130.295L159.947 129.871L159.076 129.821L158.901 128.551L158.777 127.481L160.221 126.858L160.918 127.456L161.217 128.103L161.391 128.875L161.914 128.726L163.384 128.701Z" stroke="#232323" stroke-width="0.259918" stroke-linecap="square" stroke-linejoin="bevel"/>
</g>
<g id="lag-cona-cona">
<path id="Vector_2" fill-rule="evenodd" clip-rule="evenodd" d="M119.743 134.727L119.675 135.698L119.743 135.76L119.724 137.939L116.836 137.784L116.805 137.865L116.637 137.871L116.668 134.665L116.798 134.603L119.743 134.727Z" stroke="#232323" stroke-width="0.259918" stroke-linecap="square" stroke-linejoin="bevel"/>
</g>
<g id="lag-alalay">
<path id="Vector_3" fill-rule="evenodd" clip-rule="evenodd" d="M187.801 147.838L188.148 147.788L188.622 147.913L189.245 148.66L189.818 149.407L189.594 149.531L189.518 149.88L189.742 150.229L190.016 150.079L190.49 150.129L190.913 151.698L191.137 151.997L190.714 152.569L190.913 152.968L190.365 153.74L190.49 154.487L190.365 154.686L190.54 155.084L190.514 155.533L190.016 156.031L189.693 156.329L189.792 156.628L190.165 156.653L191.236 156.554L190.714 156.927L190.514 157.201L191.061 157.375L191.262 157.55L191.884 157.674L192.307 157.475L192.88 157.575L193.055 157.873L194.35 158.421L194.598 158.023L194.847 158.371L195.818 159.019L196.74 159.766L197.013 160.936L196.914 161.061L197.039 163.302L196.317 163.177L195.421 163.626L195.27 164.149L194.847 164.497L193.951 164.099L193.527 163.551L193.229 163.327L191.535 163.925L187.676 163.8L187.525 163.925L184.388 163.302L183.715 163.7L183.267 163.426L181.898 161.285L181.599 158.77L181.026 156.803L179.209 154.238L178.088 152.221L177.64 151.872L177.541 150.552L177.715 150.204L179.433 149.905L181.151 150.154L182.297 150.627L183.965 149.78L185.31 148.734L186.506 148.261L186.68 148.56L187.452 148.386L187.801 147.838Z" stroke="#232323" stroke-width="0.259918" stroke-linecap="square" stroke-linejoin="bevel"/>
</g>
<g id="lag-albarrancho">
<path id="Vector_4" fill-rule="evenodd" clip-rule="evenodd" d="M105.68 177.603L106.003 178.2L106.452 178.648L107.896 179.346L108.195 180.266L108.693 180.167L108.817 180.415L108.742 180.889L108.892 181.139L109.041 181.96L108.817 182.906L108.17 182.981L107.746 182.956L106.701 183.43L106.476 183.055L106.128 183.279L106.053 183.553L106.402 184.152L106.626 185.322L106.501 185.447L106.153 185.52L105.306 185.173L105.406 184.475L105.107 184.276L104.808 184.949L103.912 186.169L103.314 185.82L103.115 185.246L102.567 186.218L101.969 186.791L101.471 186.815L101.048 187.712L99.3296 187.961L99.0807 188.235L98.707 187.837L97.4619 187.961L97.5616 188.259L97.0137 188.459L96.8393 186.99L97.0386 186.641L97.6114 186.518L98.0347 186.666L98.6822 186.218L100.077 185.77L101.172 184.624L101.919 182.732L102.467 182.781L102.293 180.715L102.716 179.544L103.09 179.146L104.36 178.723L104.335 178.2L104.534 178.1L104.36 177.876L105.68 177.603Z" stroke="#232323" stroke-width="0.259918" stroke-linecap="square" stroke-linejoin="bevel"/>
</g>
</g>
<g id="rio-rocha">
<path id="Vector_5" d="M221.567 146.145L219.873 146.892H216.736L213.947 145.398H211.855L210.958 144.551L207.771 144.9L204.336 141.363L203.189 140.666L202.642 138.176L201.944 136.682L202.194 135.138L198.308 129.759L194.225 127.717L193.777 125.526L191.734 122.438L190.141 122.139L188.198 122.587L185.758 124.231L184.986 124.829L162.525 130.407L161.628 131.203L160.981 132.448L156.834 141.675L155.041 151.137L148.716 158.608L146.923 159.753L143.437 160.252L138.656 165.232L138.046 167.037L131.422 174.309L127.487 176.35L120.353 178.143L114.177 177.296L110.442 177.596L104.515 172.965L100.83 166.589L97.7919 163.85L96.6341 163.451L94.8909 164.099L92.5002 164.248L91.0062 163.999L89.5121 162.505L88.1673 162.356L86.6732 161.21" stroke="#232323" stroke-width="0.259918" stroke-linecap="square" stroke-linejoin="bevel"/>
</g>
<g id="cercado">
<path id="Vector_6" fill-rule="evenodd" clip-rule="evenodd" d="M194.061 32.3613L197.547 37.5654L199.439 42.7446L199.539 48.0234L198.144 52.2065L199.439 54.0989L200.336 60.1745L203.523 64.0838L205.217 68.3665L205.715 73.5456L207.607 75.6373L204.717 83.6052L201.73 83.9041L200.834 85.9209L195.853 91.1001L195.655 92.8928L194.16 94.7853L195.157 97.0761L195.256 99.566L193.563 101.558L192.666 118.515L190.973 120.407L190.873 124.889L191.869 127.778L188.882 131.961L191.869 132.259L195.356 137.962L197.248 138.061L203.224 148.619L204.618 153.3L206.212 156.089L205.614 159.077L207.407 160.272L210.096 160.994L216.272 165.974L218.662 169.958L219.16 172.846L222.048 174.439L221.451 175.437L222.048 177.727L223.442 179.419L224.338 181.312L225.733 181.71L227.627 181.014L230.415 181.413L230.814 182.309L230.913 183.602L232.208 186.292L232.008 187.287L236.191 189.977L236.689 194.36L238.184 197.547L242.068 202.627L243.263 202.726L244.757 203.822L245.455 206.909L249.438 208.005L253.422 216.671L238.88 225.634L232.605 235.619L229.717 236.316L222.746 235.619L220.854 237.512L218.263 241.395L207.008 245.479L202.627 251.256L195.056 252.177L195.655 259.648L193.164 259.747L190.475 262.236L184.6 260.743L180.913 261.439L175.536 267.018L161.492 272.595L124.839 253.049L113.087 250.036L100.537 251.828L84.2028 251.728L71.6533 245.056L68.8645 237.486L51.8331 221.724L46.6539 210.868L54.1239 203.497L72.3505 191.222L79.2228 175.161L84.6012 171.776H87.5892L92.868 166.696L93.2663 165.003L98.6448 164.704L99.8399 168.19L100.537 171.577L102.33 173.368L106.613 173.469L110.198 145.556L116.174 144.66L116.274 130.516V128.525L117.469 118.938L125.835 123.022L137.19 92.1209L137.09 78.5754L147.448 61.6435L148.942 61.0459L151.134 51.2853L150.636 49.9905L151.831 47.4009L154.122 46.7037L158.205 37.9389L158.006 36.2457L161.791 30.2699L162.687 30.1703L164.181 28.1782L168.065 27.4811L186.591 33.3574L193.065 31.8635L194.061 32.3613Z" stroke="#232323" stroke-width="0.259918" stroke-linecap="square" stroke-linejoin="bevel"/>
</g>
</g>
</g>
</svg>
