<?xml version='1.0' encoding='UTF-8' standalone='no'?>
<svg height="209.973mm" xmlns:inkscape="http://www.inkscape.org/namespaces/inkscape" xmlns:xlink="http://www.w3.org/1999/xlink" viewBox="0 0 3507 2480" width="296.926mm" version="1.2" baseProfile="tiny" xmlns="http://www.w3.org/2000/svg">
 <defs/>
 <g inkscape:label="Page" id="Page" stroke="black" stroke-linejoin="bevel" stroke-width="1" inkscape:groupmode="layer" stroke-linecap="square" fill-rule="evenodd" fill="none">
  <g font-style="normal" font-family="Ubuntu" font-weight="400" stroke="#000000" stroke-linejoin="bevel" stroke-width="1" font-size="45.8333" stroke-opacity="1" stroke-linecap="square" transform="matrix(1,0,0,1,0,0)" fill="none"/>
  <g font-style="normal" font-family="Ubuntu" font-weight="400" stroke="#000000" stroke-linejoin="bevel" stroke-width="1" font-size="45.8333" stroke-opacity="1" stroke-linecap="square" transform="matrix(1,0,0,1,0,0)" fill="none"/>
  <g font-style="normal" font-family="Ubuntu" font-weight="400" stroke="#000000" stroke-linejoin="bevel" stroke-width="1" font-size="45.8333" stroke-opacity="1" stroke-linecap="square" transform="matrix(11.8081,0,0,11.8081,0,0)" fill="none"/>
  <g font-style="normal" font-family="Ubuntu" font-weight="400" stroke="#000000" stroke-linejoin="bevel" stroke-width="1" font-size="45.8333" stroke-opacity="1" stroke-linecap="square" transform="matrix(0.999751,0,0,0.999751,0,0)" fill="none"/>
  <g font-style="normal" font-family="Ubuntu" font-weight="400" stroke="none" font-size="45.8333" fill-opacity="1" transform="matrix(0.999751,0,0,0.999751,0,0)" fill="#ffffff">
   <path d="M-2,-2 L3510,-2 L3510,2483 L-2,2483 L-2,-2" vector-effect="none" fill-rule="evenodd"/>
  </g>
  <g font-style="normal" font-family="Ubuntu" font-weight="400" stroke="#000000" stroke-linejoin="bevel" stroke-width="1" font-size="45.8333" stroke-opacity="1" stroke-linecap="square" transform="matrix(0.999751,0,0,0.999751,0,0)" fill="none"/>
  <g font-style="normal" font-family="Ubuntu" font-weight="400" stroke="#000000" stroke-linejoin="bevel" stroke-width="1" font-size="45.8333" stroke-opacity="1" stroke-linecap="square" transform="matrix(11.8081,0,0,11.8081,0,0)" fill="none"/>
  <g font-style="normal" font-family="Ubuntu" font-weight="400" stroke="#000000" stroke-linejoin="bevel" stroke-width="1" font-size="45.8333" stroke-opacity="1" stroke-linecap="square" transform="matrix(11.8081,0,0,11.8081,0,0)" fill="none"/>
  <g font-style="normal" font-family="Ubuntu" font-weight="400" stroke="#000000" stroke-linejoin="bevel" stroke-width="1" font-size="45.8333" stroke-opacity="1" stroke-linecap="square" transform="matrix(1,0,0,1,0,0)" fill="none"/>
 </g>
 <defs/>
 <g inkscape:label="Map 1: Background" id="Map 1: Background" stroke="black" stroke-linejoin="bevel" stroke-width="1" inkscape:groupmode="layer" stroke-linecap="square" fill-rule="evenodd" fill="none">
  <g font-style="normal" font-family="Ubuntu" font-weight="400" stroke="#000000" stroke-linejoin="bevel" stroke-width="1" font-size="45.8333" stroke-opacity="1" stroke-linecap="square" transform="matrix(1,0,0,1,0,0)" fill="none"/>
  <g font-style="normal" font-family="Ubuntu" font-weight="400" stroke="#000000" stroke-linejoin="bevel" stroke-width="1" font-size="45.8333" stroke-opacity="1" stroke-linecap="square" transform="matrix(1,0,0,1,0,0)" fill="none"/>
  <g font-style="normal" font-family="Ubuntu" font-weight="400" stroke="#000000" stroke-linejoin="bevel" stroke-width="1" font-size="45.8333" stroke-opacity="1" stroke-linecap="square" transform="matrix(11.8081,0,0,11.8081,261.884,139.442)" fill="none"/>
  <g font-style="normal" font-family="Ubuntu" font-weight="400" stroke="none" font-size="45.8333" fill-opacity="1" transform="matrix(11.8081,0,0,11.8081,261.884,139.442)" fill="#ffffff">
   <path d="M0,0 L243.43,0 L243.43,192.051 L0,192.051 L0,0" vector-effect="none" fill-rule="evenodd"/>
  </g>
  <g font-style="normal" font-family="Ubuntu" font-weight="400" stroke="#000000" stroke-linejoin="bevel" stroke-width="1" font-size="45.8333" stroke-opacity="1" stroke-linecap="square" transform="matrix(11.8081,0,0,11.8081,261.884,139.442)" fill="none"/>
  <g font-style="normal" font-family="Ubuntu" font-weight="400" stroke="#000000" stroke-linejoin="bevel" stroke-width="1" font-size="45.8333" stroke-opacity="1" stroke-linecap="square" transform="matrix(11.8081,0,0,11.8081,261.884,139.442)" fill="none"/>
  <g font-style="normal" font-family="Ubuntu" font-weight="400" stroke="#000000" stroke-linejoin="bevel" stroke-width="1" font-size="45.8333" stroke-opacity="1" stroke-linecap="square" transform="matrix(11.8081,0,0,11.8081,261.884,139.442)" fill="none"/>
  <g font-style="normal" font-family="Ubuntu" font-weight="400" stroke="#000000" stroke-linejoin="bevel" stroke-width="1" font-size="45.8333" stroke-opacity="1" stroke-linecap="square" transform="matrix(11.8081,0,0,11.8081,261.884,139.442)" fill="none"/>
  <g font-style="normal" font-family="Ubuntu" font-weight="400" stroke="#000000" stroke-linejoin="bevel" stroke-width="1" font-size="45.8333" stroke-opacity="1" stroke-linecap="square" transform="matrix(1,0,0,1,0,0)" fill="none"/>
  <g font-style="normal" font-family="Ubuntu" font-weight="400" stroke="#000000" stroke-linejoin="bevel" stroke-width="1" font-size="45.8333" stroke-opacity="1" stroke-linecap="square" transform="matrix(11.8081,0,0,11.8081,261.884,139.442)" fill="none"/>
  <g font-style="normal" font-family="Ubuntu" font-weight="400" stroke="#000000" stroke-linejoin="bevel" stroke-width="1" font-size="45.8333" stroke-opacity="1" stroke-linecap="square" transform="matrix(11.8081,0,0,11.8081,261.884,139.442)" fill="none"/>
  <g font-style="normal" font-family="Ubuntu" font-weight="400" stroke="#000000" stroke-linejoin="bevel" stroke-width="1" font-size="45.8333" stroke-opacity="1" stroke-linecap="square" transform="matrix(1,0,0,1,0,0)" fill="none"/>
 </g>
 <defs/>
 <g inkscape:label="Map 1: cocha_border" id="Map 1: cocha_border" stroke="black" stroke-linejoin="bevel" stroke-width="1" inkscape:groupmode="layer" stroke-linecap="square" fill-rule="evenodd" fill="none">
  <g font-style="normal" font-family="Ubuntu" font-weight="400" stroke="#000000" stroke-linejoin="bevel" stroke-width="1" font-size="45.8333" stroke-opacity="1" stroke-linecap="square" transform="matrix(1,0,0,1,0,0)" fill="none"/>
  <g font-style="normal" font-family="Ubuntu" font-weight="400" stroke="#000000" stroke-linejoin="bevel" stroke-width="1" font-size="45.8333" stroke-opacity="1" stroke-linecap="square" transform="matrix(1,0,0,1,0,0)" fill="none"/>
  <g font-style="normal" font-family="Ubuntu" font-weight="400" stroke="#000000" stroke-linejoin="bevel" stroke-width="1" font-size="45.8333" stroke-opacity="1" stroke-linecap="square" transform="matrix(11.8081,0,0,11.8081,261.884,139.442)" fill="none"/>
  <g font-style="normal" font-family="Ubuntu" font-weight="400" stroke="#000000" stroke-linejoin="bevel" stroke-width="1" font-size="45.8333" stroke-opacity="1" stroke-linecap="square" transform="matrix(11.8081,0,0,11.8081,261.884,139.442)" fill="none"/>
  <g font-style="normal" font-family="Ubuntu" font-weight="400" stroke="none" font-size="45.8333" fill-opacity="0" transform="matrix(0.999751,0,0,0.999751,261.884,139.442)" fill="#000000">
   <rect height="2268" y="0" width="2875" x="0"/>
  </g>
  <g font-style="normal" font-family="Ubuntu" font-weight="400" stroke="#000000" stroke-linejoin="bevel" stroke-width="1" font-size="45.8333" stroke-opacity="1" stroke-linecap="square" transform="matrix(0.999751,0,0,0.999751,261.884,139.442)" fill="none"/>
  <g font-style="normal" font-family="Ubuntu" font-weight="400" stroke="#232323" stroke-linejoin="bevel" stroke-width="3.07087" font-size="45.8333" fill-opacity="0" stroke-opacity="1" stroke-linecap="square" transform="matrix(0.999751,0,0,0.999751,261.884,139.442)" fill="#ff29d5">
   <path d="M1977.68,316.172 L1942.21,375.772 L1975.93,425.778 L1980.59,441.478 L1980.59,504.276 L2013.15,539.163 L1995.7,557.77 L1999.19,600.798 L2016.64,645.571 L1985.24,660.689 L1994.54,717.673 L1971.28,735.116 L1971.28,763.027 L1932.91,780.471 L1936.4,859.549 L1909.65,870.016 L1923.6,979.912 L1953.84,1015.96 L1977.1,1065.97 L2039.9,1095.04 L2070.13,1128.77 L2075.95,1139.23 L2135.26,1182.84 L2188.75,1209.59 L2187.59,1228.2 L2205.03,1234.01 L2229.45,1270.06 L2270.15,1304.95 L2260.85,1345.65 L2195.73,1347.98 L2159.68,1371.24 L2157.35,1420.08 L1964.31,1655.57 L1960.82,1704.42 L1980.59,1724.18 L2024.78,1772.45 L2025.94,1824.78 L2071.29,1858.5 L2103.86,1903.86 L2129.44,1957.35 L2127.12,1980.61 L2138.74,1986.42 L2137.58,2023.64 L2171.31,2038.76 L2217.82,2082.95 L2217.82,2110.86 L2227.13,2135.28 L2205.03,2163.19 L2193.4,2146.91 L2158.51,2143.42 L2130.6,2170.17 L2080.6,2186.45 L2020.13,2166.68 L2008.5,2129.46 L1980.59,2098.07 L1924.77,2094.58 L1903.83,2075.39 L1859.64,2068.41 L1743.35,2148.65 L1754.98,2192.84 L1682.88,2155.63 L1630.55,2155.63 L1631.71,2103.3 L1524.72,1984.68 L1507.28,1990.49 L1463.08,1916.07 L1445.64,1910.25 L1242.13,1715.46 L1197.94,1728.26 L1186.31,1713.14 L1130.49,1648.01 L1049.08,1643.36 L930.464,1736.4 L823.475,1724.77 L764.166,1722.44 L632.755,1515.44 L526.929,1443.34 L628.104,1386.35 L603.682,1346.82 L624.615,1304.95 L587.401,1273.55 L604.845,1243.32 L596.705,1221.22 L593.216,1182.84 L539.721,1125.86 L505.996,1064.22 L542.047,1030.5 L554.839,968.865 L667.643,953.746 L675.784,894.437 L679.272,860.712 L699.042,818.847 L699.042,789.774 L652.525,739.768 L662.991,688.599 L661.828,650.223 L657.177,606.032 L616.474,579.284 L622.289,524.627 L576.935,469.969 L585.075,452.525 L582.749,418.801 L596.705,401.357 L603.682,368.795 L582.749,336.233 L576.935,295.53 L658.34,222.266 L709.508,290.879 L763.003,318.789 L801.38,359.491 L833.941,399.031 L849.06,440.896 L876.97,490.902 L947.908,565.329 L998.495,625.511 L1077.57,681.331 L1189.22,716.219 L1263.64,730.174 L1572.98,623.185 L1603.22,518.521 L1614.85,490.611 L1614.85,444.094 L1668.34,348.734 L1977.68,316.172" vector-effect="none" fill-rule="evenodd"/>
  </g>
  <g font-style="normal" font-family="Ubuntu" font-weight="400" stroke="#000000" stroke-linejoin="bevel" stroke-width="1" font-size="45.8333" stroke-opacity="1" stroke-linecap="square" transform="matrix(0.999751,0,0,0.999751,261.884,139.442)" fill="none"/>
  <g font-style="normal" font-family="Ubuntu" font-weight="400" stroke="#000000" stroke-linejoin="bevel" stroke-width="1" font-size="45.8333" stroke-opacity="1" stroke-linecap="square" transform="matrix(11.8081,0,0,11.8081,261.884,139.442)" fill="none"/>
  <g font-style="normal" font-family="Ubuntu" font-weight="400" stroke="#000000" stroke-linejoin="bevel" stroke-width="1" font-size="45.8333" stroke-opacity="1" stroke-linecap="square" transform="matrix(11.8081,0,0,11.8081,261.884,139.442)" fill="none"/>
  <g font-style="normal" font-family="Ubuntu" font-weight="400" stroke="#000000" stroke-linejoin="bevel" stroke-width="1" font-size="45.8333" stroke-opacity="1" stroke-linecap="square" transform="matrix(11.8081,0,0,11.8081,261.884,139.442)" fill="none"/>
  <g font-style="normal" font-family="Ubuntu" font-weight="400" stroke="#000000" stroke-linejoin="bevel" stroke-width="1" font-size="45.8333" stroke-opacity="1" stroke-linecap="square" transform="matrix(1,0,0,1,0,0)" fill="none"/>
  <g font-style="normal" font-family="Ubuntu" font-weight="400" stroke="#000000" stroke-linejoin="bevel" stroke-width="1" font-size="45.8333" stroke-opacity="1" stroke-linecap="square" transform="matrix(11.8081,0,0,11.8081,261.884,139.442)" fill="none"/>
  <g font-style="normal" font-family="Ubuntu" font-weight="400" stroke="#000000" stroke-linejoin="bevel" stroke-width="1" font-size="45.8333" stroke-opacity="1" stroke-linecap="square" transform="matrix(11.8081,0,0,11.8081,261.884,139.442)" fill="none"/>
  <g font-style="normal" font-family="Ubuntu" font-weight="400" stroke="#000000" stroke-linejoin="bevel" stroke-width="1" font-size="45.8333" stroke-opacity="1" stroke-linecap="square" transform="matrix(1,0,0,1,0,0)" fill="none"/>
 </g>
</svg>
