<?xml version="1.0" encoding="UTF-8"?>
<svg xmlns="http://www.w3.org/2000/svg" xmlns:xlink="http://www.w3.org/1999/xlink" width="10pt" height="10pt" viewBox="0 0 10 10" version="1.1">
<g id="surface1">
<path fill="none" stroke-width="1" stroke-linecap="butt" stroke-linejoin="miter" stroke="#000"  d="M 9 89.015625 C 9.5625 44.4375 45.984375 8.71875 90.492188 9 C 135 9.28125 171 45.492188 171 90 C 171 134.507812 135 170.71875 90.492188 171 C 45.984375 171.28125 9.5625 135.5625 9 90.984375 Z M 59.976562 75.023438 C 59.976562 62.015625 61.03125 55.96875 67.992188 49.007812 C 75.023438 40.007812 85.992188 39.023438 95.976562 40.992188 C 106.03125 43.03125 117.984375 53.015625 117.984375 67.007812 C 117.984375 81 107.015625 85.992188 103.007812 89.015625 C 99.984375 91.96875 98.015625 94.992188 98.015625 98.015625 L 98.015625 120.023438 M 98.015625 131.976562 L 98.015625 148.007812 " transform="matrix(0.0555556,0,0,0.0555556,0,0)"/>
</g>
</svg>
