<?xml version="1.0" encoding="UTF-8"?>
<svg width="224.88pt" height="187.5pt" version="1.2" viewBox="0 0 224.88 187.5" xmlns="http://www.w3.org/2000/svg" xmlns:xlink="http://www.w3.org/1999/xlink">
<defs>
<symbol id="k" overflow="visible">
<path d="m2.2344-39.141h6.1562v33.547h10.125v5.5938h-16.281z"/>
</symbol>
<symbol id="c" overflow="visible">
<path d="m22.141 0h-6.2031l-1.0625-7.1094h-7.5469l-1.0625 7.1094h-5.6562l6.2656-39.141h9zm-14.031-12.422h5.9219l-2.9531-19.797z"/>
</symbol>
<symbol id="h" overflow="visible">
<path d="m11.516-39.141c3.207 0 5.5312 0.74609 6.9688 2.2344 1.4375 1.4922 2.1562 3.7461 2.1562 6.7656v1.3906c0 2.0234-0.32031 3.6836-0.95312 4.9844-0.63672 1.3047-1.6406 2.2734-3.0156 2.9062 1.6758 0.63672 2.8594 1.6719 3.5469 3.1094 0.6875 1.4297 1.0312 3.1875 1.0312 5.2812v3.1875c0 3.0234-0.78906 5.3242-2.3594 6.9062-1.5625 1.5859-3.8906 2.375-6.9844 2.375h-9.6719v-39.141zm-3.125 21.531v12.016h3.5156c1.0508 0 1.8438-0.27344 2.375-0.82812 0.53906-0.5625 0.8125-1.5703 0.8125-3.0312v-3.4062c0-1.832-0.30859-3.082-0.92188-3.75-0.61719-0.66406-1.6328-1-3.0469-1zm0-15.938v10.344h2.4062c1.1562 0 2.0547-0.29688 2.7031-0.89062 0.65625-0.60156 0.98438-1.6875 0.98438-3.25v-2.1875c0-1.4141-0.25781-2.4375-0.76562-3.0625-0.5-0.63281-1.2891-0.95312-2.3594-0.95312z"/>
</symbol>
<symbol id="g" overflow="visible">
<path d="m0.45312-39.141h19v5.5938h-6.4219v33.547h-6.1562v-33.547h-6.4219z"/>
</symbol>
<symbol id="f" overflow="visible">
<path d="m8.3906-22.641h8.4375v5.5781h-8.4375v11.469h10.625v5.5938h-16.781v-39.141h16.781v5.5938h-10.625z"/>
</symbol>
<symbol id="b" overflow="visible">
<path d="m20.078-14.594v5.2031c0 3.168-0.77734 5.6016-2.3281 7.2969-1.543 1.6992-3.8242 2.5469-6.8438 2.5469-3.0234 0-5.3086-0.84766-6.8594-2.5469-1.543-1.6953-2.3125-4.1289-2.3125-7.2969v-20.359c0-3.1641 0.76953-5.5977 2.3125-7.2969 1.5508-1.6953 3.8359-2.5469 6.8594-2.5469 3.0195 0 5.3008 0.85156 6.8438 2.5469 1.5508 1.6992 2.3281 4.1328 2.3281 7.2969v3.7969h-5.8125v-4.1875c0-1.4141-0.29297-2.4102-0.875-2.9844-0.57422-0.58203-1.3438-0.875-2.3125-0.875s-1.7461 0.29297-2.3281 0.875c-0.57422 0.57422-0.85938 1.5703-0.85938 2.9844v21.141c0 1.418 0.28516 2.4062 0.85938 2.9688 0.58203 0.55469 1.3594 0.82812 2.3281 0.82812s1.7383-0.27344 2.3125-0.82812c0.58203-0.5625 0.875-1.5508 0.875-2.9688v-5.5938z"/>
</symbol>
<symbol id="e" overflow="visible">
<path d="m7.7188-28.359v28.359h-5.5312v-39.141h7.7031l6.3281 23.422v-23.422h5.4844v39.141h-6.3281z"/>
</symbol>
<symbol id="a" overflow="visible">
<path d="m7.8906-9c0 1.418 0.28516 2.418 0.85938 3 0.58203 0.57422 1.3594 0.85938 2.3281 0.85938s1.7383-0.28516 2.3125-0.85938c0.58203-0.58203 0.875-1.582 0.875-3v-21.141c0-1.4141-0.29297-2.4102-0.875-2.9844-0.57422-0.58203-1.3438-0.875-2.3125-0.875s-1.7461 0.29297-2.3281 0.875c-0.57422 0.57422-0.85938 1.5703-0.85938 2.9844zm-6.1562-20.75c0-3.1641 0.80078-5.5977 2.4062-7.2969 1.6016-1.6953 3.9141-2.5469 6.9375-2.5469 3.0195 0 5.3281 0.85156 6.9219 2.5469 1.6016 1.6992 2.4062 4.1328 2.4062 7.2969v20.359c0 3.168-0.80469 5.6016-2.4062 7.2969-1.5938 1.6992-3.9023 2.5469-6.9219 2.5469-3.0234 0-5.3359-0.84766-6.9375-2.5469-1.6055-1.6953-2.4062-4.1289-2.4062-7.2969z"/>
</symbol>
<symbol id="d" overflow="visible">
<path d="m1.4531-29.75c0-3.1641 0.75391-5.5977 2.2656-7.2969 1.5078-1.6953 3.7734-2.5469 6.7969-2.5469 3.0195 0 5.2852 0.85156 6.7969 2.5469 1.5078 1.6992 2.2656 4.1328 2.2656 7.2969v1.2344h-5.8281v-1.625c0-1.4141-0.27344-2.4102-0.8125-2.9844-0.53125-0.58203-1.2812-0.875-2.25-0.875s-1.7266 0.29297-2.2656 0.875c-0.54297 0.57422-0.8125 1.5703-0.8125 2.9844 0 1.3438 0.29688 2.5312 0.89062 3.5625 0.59375 1.0234 1.3359 1.9922 2.2344 2.9062 0.89453 0.90625 1.8516 1.8203 2.875 2.7344 1.0312 0.90625 1.9922 1.9023 2.8906 2.9844 0.89453 1.0859 1.6406 2.3203 2.2344 3.7031 0.59375 1.375 0.89062 2.9961 0.89062 4.8594 0 3.168-0.77734 5.6016-2.3281 7.2969-1.543 1.6992-3.8242 2.5469-6.8438 2.5469-3.0234 0-5.3086-0.84766-6.8594-2.5469-1.543-1.6953-2.3125-4.1289-2.3125-7.2969v-2.4062h5.8281v2.7969c0 1.418 0.28516 2.4062 0.85938 2.9688 0.57031 0.55469 1.3477 0.82812 2.3281 0.82812 0.96875 0 1.7383-0.27344 2.3125-0.82812 0.58203-0.5625 0.875-1.5508 0.875-2.9688 0-1.3438-0.30469-2.5234-0.90625-3.5469-0.59375-1.0312-1.3398-2-2.2344-2.9062-0.89844-0.91406-1.8594-1.832-2.8906-2.75-1.0234-0.91406-1.9805-1.9102-2.875-2.9844-0.88672-1.082-1.6328-2.3125-2.2344-3.6875-0.59375-1.3828-0.89062-3.0078-0.89062-4.875z"/>
</symbol>
<symbol id="j" overflow="visible">
<path d="m2.2344-39.141h6.1562v39.141h-6.1562z"/>
</symbol>
<symbol id="i" overflow="visible">
<path d="m2.2344-39.141h6.1562v33.547h10.125v5.5938h-16.281z"/>
</symbol>
</defs>
<g>
<path d="m137.84 140.8h18.422v18.426h-18.422z" fill="#00ff8a"/>
<path d="m115.62 140.8h18.426v18.426h-18.426z" fill="#00ff8a"/>
<path d="m137.66 95.121h18.422v18.426h-18.422z" fill="#00e17b"/>
<path d="m115.44 95.121h18.426v18.426h-18.426z" fill="#00ff8a"/>
<path d="m137.48 49.445h18.426v18.422h-18.426z" fill="#00b664"/>
<path d="m71.305 49.445h18.422v18.422h-18.422z" fill="#00ff8a"/>
<path d="m159.73 140.8h18.422v18.426h-18.422z" fill="#00ff8a"/>
<path d="m159.55 95.121h18.422v18.426h-18.422z" fill="#00b664"/>
<path d="m159.36 49.445h18.426v18.422h-18.426z" fill="#00a258"/>
<path d="m93.191 49.445h18.422v18.422h-18.422z" fill="#00e17b"/>
<path d="m181.98 140.8h18.426v18.426h-18.426z" fill="#00b664"/>
<path d="m181.8 95.121h18.426v18.426h-18.426z" fill="#00b664"/>
<path d="m181.62 49.445h18.422v18.422h-18.422z" fill="#00a258"/>
<path d="m115.44 49.445h18.426v18.422h-18.426z" fill="#00b664"/>
<path d="m137.84 118.55h18.422v18.422h-18.422z" fill="#00ff8a"/>
<path d="m115.62 118.55h18.426v18.422h-18.426z" fill="#00ff8a"/>
<path d="m137.66 72.867h18.422v18.426h-18.422z" fill="#00b664"/>
<path d="m115.44 72.867h18.426v18.426h-18.426z" fill="#00e17b"/>
<path d="m137.48 27.191h18.426v18.426h-18.426z" fill="#00a258"/>
<path d="m71.305 27.191h18.422v18.426h-18.422z" fill="#00e17b"/>
<path d="m159.73 118.55h18.422v18.422h-18.422z" fill="#00e17b"/>
<path d="m159.55 72.867h18.422v18.426h-18.422z" fill="#00b664"/>
<path d="m159.36 27.191h18.426v18.426h-18.426z" fill="#00a258"/>
<path d="m93.191 27.191h18.422v18.426h-18.422z" fill="#00b664"/>
<path d="m181.98 118.55h18.426v18.422h-18.426z" fill="#00b664"/>
<path d="m181.8 72.867h18.426v18.426h-18.426z" fill="#00a258"/>
<path d="m181.62 27.191h18.422v18.426h-18.422z" fill="#00a258"/>
<path d="m115.44 27.191h18.426v18.426h-18.426z" fill="#00b664"/>
<g>
<use x="11.267059" y="65.678074" xlink:href="#k"/>
</g>
<g>
<use x="30.224409" y="65.678074" xlink:href="#c"/>
</g>
<g>
<use x="52.984414" y="65.678074" xlink:href="#h"/>
</g>
<g>
<use x="11.267059" y="111.983935" xlink:href="#g"/>
</g>
<g>
<use x="31.175065" y="111.983935" xlink:href="#f"/>
</g>
<g>
<use x="51.75413" y="111.983935" xlink:href="#b"/>
</g>
<g>
<use x="73.339783" y="111.983935" xlink:href="#e"/>
</g>
<g>
<use x="97.218209" y="111.983935" xlink:href="#a"/>
</g>
<g>
<use x="11.267059" y="158.289796" xlink:href="#d"/>
</g>
<g>
<use x="32.181653" y="158.289796" xlink:href="#a"/>
</g>
<g>
<use x="54.326521" y="158.289796" xlink:href="#b"/>
</g>
<g>
<use x="75.912174" y="158.289796" xlink:href="#j"/>
</g>
<g>
<use x="86.537236" y="158.289796" xlink:href="#c"/>
</g>
<g>
<use x="109.297241" y="158.289796" xlink:href="#i"/>
</g>
</g>
</svg>
