<svg width="500" height="500" viewBox="0 0 500 500" fill="none" xmlns="http://www.w3.org/2000/svg">
<g id="cercado-map-min">
<g id="edificios">
<path id="complejo-sarco" fill-rule="evenodd" clip-rule="evenodd" d="M247.125 196.763L244.61 197.961L244.247 195.888L247.135 195.918L247.125 196.763Z" stroke="#232323" stroke-width="0.26" stroke-linecap="square" stroke-linejoin="bevel"/>
<path id="campus-umss" fill-rule="evenodd" clip-rule="evenodd" d="M302.156 233.599L303.493 236.81L301.234 239.367L301.025 238.445L293.146 239.605L293.026 238.892L291.451 238.98L290.886 235.62L302.156 233.599Z" stroke="#232323" stroke-width="0.26" stroke-linecap="square" stroke-linejoin="bevel"/>
<path id="parque-lincoln" fill-rule="evenodd" clip-rule="evenodd" d="M247.453 195.666L255.116 196.311L265.255 197.246L265.194 198.242L263.865 198.424L259.757 198.152L259.798 197.851L247.492 196.784L247.453 195.666Z" stroke="#232323" stroke-width="0.26" stroke-linecap="square" stroke-linejoin="bevel"/>
<path id="prado" fill-rule="evenodd" clip-rule="evenodd" d="M274.593 217.806L274.532 218.027L280.771 226.399L279.926 226.62L273.828 218.551L273.426 218.349L273.063 218.027L273.003 217.544L273.204 217.061L273.506 216.819H273.869L274.452 217.242L274.593 217.806Z" stroke="#232323" stroke-width="0.26" stroke-linecap="square" stroke-linejoin="bevel"/>
<path id="estadio" fill-rule="evenodd" clip-rule="evenodd" d="M271.553 210.943L272.721 214.666L271.955 215.833L269.561 216.376L269.36 215.43L266.442 216.417L265.636 216.155L265.536 214.485L265.154 212.593L269.219 211.606L270.084 210.902L271.553 210.943Z" stroke="#232323" stroke-width="0.26" stroke-linecap="square" stroke-linejoin="bevel"/>
<path id="estacion-teleferioc" fill-rule="evenodd" clip-rule="evenodd" d="M304.322 227.51L304.768 229.087L301.587 229.681L301.735 228.045L304.322 227.51Z" stroke="#232323" stroke-width="0.26" stroke-linecap="square" stroke-linejoin="bevel"/>
</g>
</g>
</svg>
