<svg width="500" height="500" viewBox="0 0 500 500" fill="none" xmlns="http://www.w3.org/2000/svg">
<path d="M170.844 260.432C170.844 260.244 170.898 260.088 171.008 259.963C171.121 259.838 171.289 259.775 171.512 259.775C171.734 259.775 171.902 259.838 172.016 259.963C172.133 260.088 172.191 260.244 172.191 260.432C172.191 260.611 172.133 260.762 172.016 260.883C171.902 261.004 171.734 261.064 171.512 261.064C171.289 261.064 171.121 261.004 171.008 260.883C170.898 260.762 170.844 260.611 170.844 260.432Z" fill="white"/>
<path fill-rule="evenodd" clip-rule="evenodd" d="M185.71 263.529L186.16 264.201L186.404 264.868L186.416 265.548L186.237 266.089L186.404 266.332L186.52 267.116L186.93 267.62L187.149 268.172L187.213 268.84L187.457 269.109L187.084 270.137L186.699 270.175L186.583 270.436L185.941 271.103L185.916 271.335L185.723 271.579L185.852 271.875L185.864 272.196L185.646 272.452L185.53 274.639L185.312 274.883L185.299 275.461L185.428 275.834L185.042 276.373L185.428 276.411L185.877 277.147L186.121 277.16L186.891 278.521L187.072 279.125L187.278 279.485L187.2 279.87L187.432 280.024L187.778 280.117L188.575 280.76L188.883 281.273L188.947 281.645L189.32 281.851L189.243 281.98L189.32 282.275L189.499 282.493L189.614 282.737L189.795 282.788L190.038 282.698L190.398 282.75L190.45 282.865L190.463 283.033L190.629 283.379L190.604 283.508L191.143 283.854L191.208 284.42L191.4 284.83L191.901 285.486L192.055 285.498L192.247 285.64L192.338 286.038L192.851 286.179L193.365 287.297L191.49 288.452L190.681 289.74L190.309 289.83L189.409 289.74L189.166 289.984L188.831 290.485L187.38 291.012L186.814 291.757L185.839 291.876L185.916 292.839L185.594 292.852L185.248 293.173L184.49 292.98L184.014 293.07L183.321 293.789L181.51 294.509L176.784 291.988L175.268 291.6L173.65 291.831L171.543 291.818L169.925 290.957L169.565 289.982L167.369 287.949L166.701 286.548L167.664 285.598L170.015 284.015L170.901 281.944L171.595 281.507H171.98L172.661 280.853L172.712 280.634L173.406 280.595L173.56 281.045L173.65 281.482L173.881 281.713L174.434 281.726L174.896 278.126L175.666 278.011L175.679 276.187V275.93L175.833 274.693L176.912 275.22L178.377 271.235L178.364 269.489L179.699 267.305L179.892 267.228L180.175 265.969L180.11 265.802L180.265 265.469L180.56 265.378L181.087 264.248L181.06 264.03L181.549 263.259L181.664 263.246L181.857 262.99L182.358 262.9L184.747 263.658L185.582 263.465L185.71 263.529Z" stroke="#232323" stroke-width="0.26" stroke-linecap="square" stroke-linejoin="bevel"/>
<path fill-rule="evenodd" clip-rule="evenodd" d="M364.067 74.3658L365.399 100.443L370.932 124.882L374.211 140.252L372.776 146.861L369.293 165.511L361.915 167.56L355.152 192.562L356.792 201.989L362.12 217.615L370.113 221.509L369.908 227.042L378.105 231.755L388.556 237.289L394.09 243.027L405.566 246.101L408.435 250.2L414.583 252.044L416.838 256.962L414.994 259.627L418.067 259.832L424.011 260.037L421.551 262.496V264.135L426.674 268.234L426.264 275.612L425.65 278.891L424.83 281.76H422.166L420.936 283.195L418.477 282.99L416.838 281.76L412.944 282.169L410.279 285.244H408.23L406.181 284.834V287.498L405.976 292.826L404.132 293.441L402.902 296.105L403.722 298.872L403.107 302.151L399.213 305.02L391.836 304.61L390.196 303.586H385.688L382.409 306.249L379.744 311.783L376.465 312.603L376.875 317.931L368.473 318.955L367.038 320.39L361.915 322.03L358.021 332.891L353.308 346.007L363.349 359.533L366.014 359.942L365.194 363.426L370.318 368.14L378.105 367.115L382.819 369.369L390.196 374.288L395.32 388.633L397.573 396.011L401.877 396.831L401.672 401.749L406.386 411.996L412.739 415.275L417.452 418.554L422.986 431.669L417.452 434.539L417.042 440.072H413.968L411.714 433.924L404.132 435.153L400.238 439.252L392.655 441.097H386.098L385.483 438.842L378.515 435.973L375.646 429.006L373.392 428.391L368.678 423.677L357.612 422.575L355.459 417.862L351.463 417.247H345.213L339.885 421.039L335.581 424.625L330.97 425.855L327.486 430.158L324.719 432.72L323.388 436.102L326.359 440.2L325.641 442.044L319.391 439.791L317.034 439.38L317.546 437.126L310.682 433.54L303.816 435.076L303.714 433.335L300.537 433.95L297.77 431.901L299.103 424.83L298.795 419.809L294.799 419.912L292.442 419.092L292.954 413.456L290.086 411.509L288.343 414.686L287.114 413.968L287.216 409.255L276.764 401.467L275.74 402.902L271.026 399.316L268.977 394.193L265.903 388.147L260.575 387.02L254.734 381.896L248.586 373.263L227.273 356.766L221.637 351.617L219.178 351.822L212.108 354.384L209.853 352.539L209.648 350.183L208.316 348.44L207.497 349.567L203.398 347.006L203.193 345.161L195.303 333.275L188.54 329.97L185.671 331.918L185.261 335.812L187.003 337.656L174.4 346.878L173.068 348.825L170.506 349.132L170.096 347.186L168.456 347.595L165.588 351.899L162.411 351.694L161.899 350.157L158.62 348.313L153.087 349.44L146.528 353.641L142.635 354.153L138.638 357.637L138.946 359.584L135.667 362.248L136.077 364.195L129.724 365.425L124.293 367.678L121.834 370.445H115.276L113.534 371.572H112.099L111.587 370.138L109.742 369.933L106.669 371.265L102.775 371.983L100.623 368.396L99.1887 367.884L98.6764 365.629L101.135 364.605V362.658L99.1887 360.916L97.3438 359.994V358.559L98.7789 358.661L100.52 357.227L101.75 357.432L104.927 354.46L103.8 351.592L105.234 346.135L102.365 342.446L102.468 341.114L107.489 341.217L108.206 342.446L111.075 341.114L110.768 339.782L108.718 337.835L109.435 334.351L106.669 334.556L103.492 328.613L100.418 328.818L100.623 326.154L91.1961 323.388L92.1182 321.133L83.9208 309.733L85.0476 309.119L83.4085 305.635L86.995 300.793L85.6632 298.129L88.3268 297.617L90.1717 299.051L90.9912 296.183L94.5777 295.465L95.7046 294.747L97.856 292.903L95.4997 284.501L92.2206 283.066L90.3766 280.197L91.5035 277.226L93.5524 276.278L94.7826 267.978L88.6341 265.314L88.5317 261.523L90.5814 258.243L88.9415 254.964L88.0194 244.513L85.9705 241.746L83.5109 241.644L76.5432 233.241L74.2889 225.531L73.9815 220.92L78.2851 217.436L77.363 215.08L84.5357 206.139L95.3973 207.061L101.955 202.629L107.898 196.277L107.796 192.69L104.722 188.796L107.386 183.878L108.513 175.168L102.673 166.125L104.722 164.691L102.057 162.129L99.9058 136.487L93.1426 131.26L94.3728 124.805L84.8427 111.254V108.692L85.5607 107.873L84.6381 99.2657L85.7656 98.5477L85.5607 96.1915L90.7863 91.2469L88.4292 86.9433L89.9668 85.6115L86.8925 80.6931L86.3803 77.3117L99.8033 58.0478L114.558 74.0583L130.953 104.082L144.889 123.986L167.227 139.355L189.462 150.448L199.504 152.907H213.132L237.212 144.197L245.922 139.074L259.652 130.365L262.009 126.957L271.026 105.849L283.015 86.0729L297.668 74.4682L300.742 72.9312L305.148 72.7263L316.42 74.6732L364.067 74.3658Z" stroke="#232323" stroke-width="0.26" stroke-linecap="square" stroke-linejoin="bevel"/>
</svg>
